<?xml version="1.0" encoding="utf-8"?>
<!-- Generator: Adobe Illustrator 16.0.3, SVG Export Plug-In . SVG Version: 6.00 Build 0)  -->
<!DOCTYPE svg PUBLIC "-//W3C//DTD SVG 1.1//EN" "http://www.w3.org/Graphics/SVG/1.1/DTD/svg11.dtd">
<svg version="1.1" id="Warstwa_1" xmlns="http://www.w3.org/2000/svg" xmlns:xlink="http://www.w3.org/1999/xlink" x="0px" y="0px"
	 width="26.936px" height="26.789px" viewBox="11.967 10.056 26.936 26.789" enable-background="new 11.967 10.056 26.936 26.789"
	 xml:space="preserve">
<g id="Warstwa_1_1_">
</g>
<g id="Warstwa_2">
	<g>
		<path fill="#D7DFDA" d="M39,37V10H12v27h14.254l0.036-10h-3.511l0.073-4h3.402c0,0,0.104-2.488,0.163-4.626
			c0.211-1.031,0.67-2.189,1.267-2.886c0.652-0.745,1.69-1.203,2.773-1.377c2.121-0.086,4.318,0.04,4.318,0.04l-0.104,3.642
			c0,0-2.852-0.088-3.552,0.32c-0.759,0.563-0.533,4.143-0.533,4.143l4.046,0.093l-0.57,4.043l-3.569-0.048l0.118,10.5"/>
	</g>
</g>
</svg>
